# Blender v2.93.6 OBJ File: ''
# www.blender.org
mtllib Ingot.mtl
o ingot
v 0.689655 0.707655 0.933929
v 0.768521 0.790909 0.801953
v 0.783809 0.707655 0.899281
v -0.762008 0.098504 -1.271151
v 1.469750 0.098504 0.190618
v 1.131701 0.707655 0.259036
v -0.689645 0.707655 -0.933923
v 1.493894 0.098504 0.318278
v 0.888687 0.098504 1.242278
v 0.783809 0.707655 0.899281
v 1.137561 0.707655 0.359189
v 0.768521 0.790909 0.801953
v 1.042232 0.790909 0.384065
v 1.137561 0.707655 0.359189
v 0.783809 0.707655 0.899281
v 0.689655 0.707655 0.933929
v 0.783809 0.707655 0.899281
v 0.888687 0.098504 1.242278
v 0.762014 0.098504 1.271155
v -0.689645 0.707655 -0.933923
v 1.131701 0.707655 0.259036
v 1.042232 0.790909 0.384065
v -0.768520 0.790909 -0.801953
v 0.768521 0.790909 0.801953
v -1.042232 0.790909 -0.384064
v 0.689655 0.707655 0.933929
v -1.131692 0.707655 -0.259028
v 0.762014 0.098504 1.271155
v -1.469744 0.098504 -0.190615
v 1.131701 0.707655 0.259036
v 1.137561 0.707655 0.359189
v 1.042232 0.790909 0.384065
v 1.493894 0.098504 0.318278
v 1.469750 0.098504 0.190618
v -1.493899 0.098504 -0.318282
v -1.131692 0.707655 -0.259028
v -1.469744 0.098504 -0.190615
v -1.137550 0.707655 -0.359181
v -1.042232 0.790909 -0.384064
v -0.768520 0.790909 -0.801953
v -0.783798 0.707655 -0.899273
v -0.888693 0.098504 -1.242282
v -0.689645 0.707655 -0.933923
v -0.762008 0.098504 -1.271151
vt 0.151752 0.236411
vt 0.199503 0.264551
vt 0.176798 0.236411
vt 0.967995 0.299103
vt 0.930370 0.607077
vt 0.062775 0.607077
vt 0.025150 0.299103
vt 0.377492 0.236411
vt 0.448820 0.030520
vt 0.105469 0.030520
vt 0.176798 0.236411
vt 0.354787 0.264551
vt 0.377492 0.236411
vt 0.176798 0.236411
vt 0.199503 0.264551
vt 0.151752 0.236411
vt 0.176798 0.236411
vt 0.105469 0.030520
vt 0.076385 0.030520
vt 0.930419 0.927733
vt 0.930368 0.979005
vt 0.062778 0.979005
vt 0.062726 0.927733
vt 0.930419 0.696978
vt 0.062726 0.696978
vt 0.930370 0.607077
vt 0.062775 0.607077
vt 0.967995 0.299103
vt 0.025150 0.299103
vt 0.354787 0.264551
vt 0.402538 0.236411
vt 0.377492 0.236411
vt 0.477905 0.030520
vt 0.448820 0.030520
vt 0.076385 0.030520
vt 0.151752 0.236411
vt 0.105469 0.030520
vt 0.176798 0.236411
vt 0.199503 0.264551
vt 0.354787 0.264551
vt 0.377492 0.236411
vt 0.448820 0.030520
vt 0.402538 0.236411
vt 0.477905 0.030520
vn 0.4955 0.6033 0.6249
vn 0.1713 0.9011 0.3983
vn -0.0839 0.6887 0.7202
vn 0.6267 0.6887 -0.3646
vn 0.7397 0.4701 -0.4814
vn 0.1458 0.4702 -0.8704
vn 0.0839 0.6887 -0.7202
vn 0.4956 0.6033 0.6249
vn 0.5273 0.4801 0.7011
vn 0.8534 0.4801 0.2032
vn 0.7708 0.6033 0.2046
vn 0.4335 0.9011 -0.0021
vn -0.1458 0.4702 0.8705
vn 0.4336 0.9011 -0.0021
vn -0.1713 0.9011 -0.3983
vn -0.4336 0.9011 0.0021
vn -0.6267 0.6887 0.3646
vn -0.1458 0.4701 0.8705
vn -0.7397 0.4701 0.4815
vn 0.6267 0.6887 -0.3647
vn 0.8534 0.4801 0.2033
vn 0.7397 0.4702 -0.4815
vn -0.7397 0.4702 0.4815
vn -0.6267 0.6887 0.3647
vn -0.8533 0.4801 -0.2032
vn -0.7709 0.6033 -0.2046
vn -0.4955 0.6033 -0.6249
vn -0.5273 0.4801 -0.7011
vn 0.1458 0.4702 -0.8705
usemtl it06_mat_INGOT
s 1
f 3/1/1 2/2/2 1/3/3
f 6/4/4 5/5/5 4/6/6
f 7/7/7 6/4/4 4/6/6
f 10/8/8 9/9/9 8/10/10
f 11/11/11 10/8/8 8/10/10
f 14/12/11 13/13/12 12/14/2
f 15/15/8 14/12/11 12/14/2
f 18/16/9 17/17/1 16/18/3
f 19/19/13 18/16/9 16/18/3
f 22/20/14 21/21/4 20/22/7
f 23/23/15 22/20/14 20/22/7
f 24/24/2 22/20/14 23/23/15
f 25/25/16 24/24/2 23/23/15
f 26/26/3 24/24/2 25/25/16
f 27/27/17 26/26/3 25/25/16
f 28/28/18 26/26/3 27/27/17
f 29/29/19 28/28/18 27/27/17
f 32/30/14 31/31/11 30/32/20
f 31/31/11 33/33/21 30/32/20
f 33/33/21 34/34/22 30/32/20
f 37/35/23 36/36/24 35/37/25
f 36/36/24 38/38/26 35/37/25
f 36/36/24 39/39/16 38/38/26
f 39/39/16 40/40/15 38/38/26
f 38/38/26 41/41/27 35/37/25
f 40/40/15 41/41/27 38/38/26
f 41/41/27 42/42/28 35/37/25
f 40/40/15 43/43/7 41/41/27
f 44/44/29 42/42/28 41/41/27
f 43/43/7 44/44/29 41/41/27
